<?xml version="1.0" standalone="no"?>
<!DOCTYPE svg PUBLIC "-//W3C//DTD SVG 20010904//EN"
 "http://www.w3.org/TR/2001/REC-SVG-20010904/DTD/svg10.dtd">
<svg version="1.0" xmlns="http://www.w3.org/2000/svg"
 width="700.000000pt" height="700.000000pt" viewBox="0 0 700.000000 700.000000"
 preserveAspectRatio="xMidYMid meet">
<metadata>
Created by potrace 1.14, written by Peter Selinger 2001-2017
</metadata>
<g transform="translate(0.000000,700.000000) scale(0.100000,-0.100000)"
fill="#000000" stroke="none">
<path d="M847 6564 c-1 -1 -31 -5 -67 -8 -89 -10 -138 -21 -218 -53 -278 -111
-471 -334 -544 -633 -11 -45 -13 -467 -13 -2375 l0 -2320 23 -80 c55 -190 143
-328 287 -451 135 -115 301 -185 474 -201 99 -8 5357 -8 5436 0 349 39 645
294 747 642 l23 80 2 2305 c3 2478 5 2364 -47 2510 -42 119 -111 227 -203 322
-142 144 -330 234 -530 254 -56 6 -5363 13 -5370 8z m1258 -1329 c317 -73 530
-348 519 -666 -4 -94 -19 -157 -60 -246 -172 -378 -639 -502 -978 -259 -329
235 -365 715 -75 996 58 56 91 80 159 116 128 67 301 90 435 59z m3014 -1647
c130 -66 297 -152 371 -191 74 -38 203 -104 285 -147 83 -42 254 -130 380
-195 320 -164 399 -206 405 -215 7 -11 4 -1558 -3 -1600 -27 -159 -141 -289
-302 -346 -47 -16 -200 -17 -2730 -19 -2011 -1 -2694 2 -2737 11 -165 33 -307
174 -339 336 -5 29 -10 161 -10 292 -1 205 1 242 15 251 14 11 121 104 185
163 14 13 53 47 85 75 33 29 69 61 80 72 12 11 60 54 106 95 47 41 92 81 101
90 9 8 49 44 90 80 123 109 180 160 264 235 44 39 100 89 125 111 25 21 63 56
85 77 77 71 164 96 247 68 18 -6 299 -189 623 -405 l590 -394 835 833 c912
909 855 859 964 849 38 -4 103 -32 285 -126z"/>
</g>
</svg>
